<svg width="1440" height="1004" viewBox="0 0 1440 1004" fill="none" xmlns="http://www.w3.org/2000/svg">
<mask id="mask0_105_1250" style="mask-type:alpha" maskUnits="userSpaceOnUse" x="986" y="-24" width="580" height="487">
<rect x="986" y="-24" width="580" height="487" fill="#FBCCCF"/>
</mask>
<g mask="url(#mask0_105_1250)">
<rect x="732.599" y="133.714" width="820" height="2" transform="rotate(-34.7596 732.599 133.714)" fill="#DDF4A6"/>
<rect x="738.3" y="141.929" width="820" height="2" transform="rotate(-34.7596 738.3 141.929)" fill="#DDF4A6"/>
<rect x="744.001" y="150.145" width="820" height="2" transform="rotate(-34.7596 744.001 150.145)" fill="#DDF4A6"/>
<rect x="749.703" y="158.36" width="820" height="2" transform="rotate(-34.7596 749.703 158.36)" fill="#DDF4A6"/>
<rect x="755.404" y="166.576" width="820" height="2" transform="rotate(-34.7596 755.404 166.576)" fill="#DDF4A6"/>
<rect x="761.105" y="174.791" width="820" height="2" transform="rotate(-34.7596 761.105 174.791)" fill="#DDF4A6"/>
<rect x="766.807" y="183.007" width="820" height="2" transform="rotate(-34.7596 766.807 183.007)" fill="#DDF4A6"/>
<rect x="772.508" y="191.222" width="820" height="2" transform="rotate(-34.7596 772.508 191.222)" fill="#DDF4A6"/>
<rect x="778.209" y="199.438" width="820" height="2" transform="rotate(-34.7596 778.209 199.438)" fill="#DDF4A6"/>
<rect x="783.911" y="207.653" width="820" height="2" transform="rotate(-34.7596 783.911 207.653)" fill="#DDF4A6"/>
<rect x="789.612" y="215.869" width="820" height="2" transform="rotate(-34.7596 789.612 215.869)" fill="#DDF4A6"/>
<rect x="795.313" y="224.084" width="820" height="2" transform="rotate(-34.7596 795.313 224.084)" fill="#DDF4A6"/>
<rect x="801.015" y="232.3" width="820" height="2" transform="rotate(-34.7596 801.015 232.3)" fill="#DDF4A6"/>
<rect x="806.716" y="240.515" width="820" height="2" transform="rotate(-34.7596 806.716 240.515)" fill="#DDF4A6"/>
<rect x="812.417" y="248.731" width="820" height="2" transform="rotate(-34.7596 812.417 248.731)" fill="#DDF4A6"/>
<rect x="818.119" y="256.946" width="820" height="2" transform="rotate(-34.7596 818.119 256.946)" fill="#DDF4A6"/>
<rect x="823.82" y="265.162" width="820" height="2" transform="rotate(-34.7596 823.82 265.162)" fill="#DDF4A6"/>
<rect x="829.521" y="273.377" width="820" height="2" transform="rotate(-34.7596 829.521 273.377)" fill="#DDF4A6"/>
<rect x="835.223" y="281.593" width="820" height="2" transform="rotate(-34.7596 835.223 281.593)" fill="#DDF4A6"/>
<rect x="840.924" y="289.808" width="820" height="2" transform="rotate(-34.7596 840.924 289.808)" fill="#DDF4A6"/>
<rect x="846.625" y="298.024" width="820" height="2" transform="rotate(-34.7596 846.625 298.024)" fill="#DDF4A6"/>
<rect x="852.327" y="306.24" width="820" height="2" transform="rotate(-34.7596 852.327 306.24)" fill="#DDF4A6"/>
<rect x="862" y="314.326" width="820" height="2" transform="rotate(-34.7596 862 314.326)" fill="#DDF4A6"/>
<rect x="863.729" y="322.671" width="820" height="2" transform="rotate(-34.7596 863.729 322.671)" fill="#DDF4A6"/>
<rect x="869.431" y="330.886" width="820" height="2" transform="rotate(-34.7596 869.431 330.886)" fill="#DDF4A6"/>
<rect x="875.132" y="339.102" width="820" height="2" transform="rotate(-34.7596 875.132 339.102)" fill="#DDF4A6"/>
<rect x="880.833" y="347.317" width="820" height="2" transform="rotate(-34.7596 880.833 347.317)" fill="#DDF4A6"/>
<rect x="886.535" y="355.533" width="820" height="2" transform="rotate(-34.7596 886.535 355.533)" fill="#DDF4A6"/>
<rect x="892.236" y="363.748" width="820" height="2" transform="rotate(-34.7596 892.236 363.748)" fill="#DDF4A6"/>
<rect x="897.938" y="371.964" width="820" height="2" transform="rotate(-34.7596 897.938 371.964)" fill="#DDF4A6"/>
<rect x="903.639" y="380.179" width="820" height="2" transform="rotate(-34.7596 903.639 380.179)" fill="#DDF4A6"/>
<rect x="909.34" y="388.395" width="820" height="2" transform="rotate(-34.7596 909.34 388.395)" fill="#DDF4A6"/>
<rect x="915.042" y="396.61" width="820" height="2" transform="rotate(-34.7596 915.042 396.61)" fill="#DDF4A6"/>
<rect x="920.743" y="404.826" width="820" height="2" transform="rotate(-34.7596 920.743 404.826)" fill="#DDF4A6"/>
<rect x="926.444" y="413.041" width="820" height="2" transform="rotate(-34.7596 926.444 413.041)" fill="#DDF4A6"/>
<rect x="932.146" y="421.257" width="820" height="2" transform="rotate(-34.7596 932.146 421.257)" fill="#DDF4A6"/>
<rect x="937.847" y="429.472" width="820" height="2" transform="rotate(-34.7596 937.847 429.472)" fill="#DDF4A6"/>
<rect x="943.548" y="437.688" width="820" height="2" transform="rotate(-34.7596 943.548 437.688)" fill="#DDF4A6"/>
<rect x="949.25" y="445.903" width="820" height="2" transform="rotate(-34.7596 949.25 445.903)" fill="#DDF4A6"/>
<rect x="954.951" y="454.119" width="820" height="2" transform="rotate(-34.7596 954.951 454.119)" fill="#DDF4A6"/>
<rect x="960.652" y="462.334" width="820" height="2" transform="rotate(-34.7596 960.652 462.334)" fill="#DDF4A6"/>
<rect x="966.354" y="470.55" width="820" height="2" transform="rotate(-34.7596 966.354 470.55)" fill="#DDF4A6"/>
<rect x="972.055" y="478.765" width="820" height="2" transform="rotate(-34.7596 972.055 478.765)" fill="#DDF4A6"/>
<rect x="977.756" y="486.981" width="820" height="2" transform="rotate(-34.7596 977.756 486.981)" fill="#DDF4A6"/>
<rect x="983.458" y="495.196" width="820" height="2" transform="rotate(-34.7596 983.458 495.196)" fill="#DDF4A6"/>
<rect x="989.159" y="503.412" width="820" height="2" transform="rotate(-34.7596 989.159 503.412)" fill="#DDF4A6"/>
<rect x="994.86" y="511.627" width="820" height="2" transform="rotate(-34.7596 994.86 511.627)" fill="#DDF4A6"/>
<rect x="1000.56" y="519.843" width="820" height="2" transform="rotate(-34.7596 1000.56 519.843)" fill="#DDF4A6"/>
<rect x="1006.26" y="528.058" width="820" height="2" transform="rotate(-34.7596 1006.26 528.058)" fill="#DDF4A6"/>
<rect x="1011.96" y="536.274" width="820" height="2" transform="rotate(-34.7596 1011.96 536.274)" fill="#DDF4A6"/>
<rect x="1017.67" y="544.49" width="820" height="2" transform="rotate(-34.7596 1017.67 544.49)" fill="#DDF4A6"/>
<rect x="1023.37" y="552.705" width="820" height="2" transform="rotate(-34.7596 1023.37 552.705)" fill="#DDF4A6"/>
<rect x="1029.07" y="560.92" width="820" height="2" transform="rotate(-34.7596 1029.07 560.92)" fill="#DDF4A6"/>
<rect x="1034.77" y="569.136" width="820" height="2" transform="rotate(-34.7596 1034.77 569.136)" fill="#DDF4A6"/>
<rect x="1040.47" y="577.352" width="820" height="2" transform="rotate(-34.7596 1040.47 577.352)" fill="#DDF4A6"/>
<rect x="1046.17" y="585.567" width="820" height="2" transform="rotate(-34.7596 1046.17 585.567)" fill="#DDF4A6"/>
<rect x="1051.87" y="593.782" width="820" height="2" transform="rotate(-34.7596 1051.87 593.782)" fill="#DDF4A6"/>
<rect x="1057.58" y="601.998" width="820" height="2" transform="rotate(-34.7596 1057.58 601.998)" fill="#DDF4A6"/>
<rect x="1063.28" y="610.214" width="820" height="2" transform="rotate(-34.7596 1063.28 610.214)" fill="#DDF4A6"/>
<rect x="1068.98" y="618.429" width="820" height="2" transform="rotate(-34.7596 1068.98 618.429)" fill="#DDF4A6"/>
<rect x="1074.68" y="626.645" width="820" height="2" transform="rotate(-34.7596 1074.68 626.645)" fill="#DDF4A6"/>
<rect x="1080.38" y="634.86" width="820" height="2" transform="rotate(-34.7596 1080.38 634.86)" fill="#DDF4A6"/>
<rect x="1086.08" y="643.076" width="820" height="2" transform="rotate(-34.7596 1086.08 643.076)" fill="#DDF4A6"/>
<rect x="1091.78" y="651.291" width="820" height="2" transform="rotate(-34.7596 1091.78 651.291)" fill="#DDF4A6"/>
<rect x="1097.48" y="659.507" width="820" height="2" transform="rotate(-34.7596 1097.48 659.507)" fill="#DDF4A6"/>
<rect x="1103.19" y="667.722" width="820" height="2" transform="rotate(-34.7596 1103.19 667.722)" fill="#DDF4A6"/>
<rect x="1108.89" y="675.938" width="820" height="2" transform="rotate(-34.7596 1108.89 675.938)" fill="#DDF4A6"/>
<rect x="1114.59" y="684.153" width="820" height="2" transform="rotate(-34.7596 1114.59 684.153)" fill="#DDF4A6"/>
</g>
<mask id="mask1_105_1250" style="mask-type:alpha" maskUnits="userSpaceOnUse" x="-150" y="517" width="580" height="487">
<rect x="-150" y="517" width="580" height="487" fill="#D0A7A9"/>
</mask>
<g mask="url(#mask1_105_1250)">
<rect x="-403.401" y="674.714" width="820" height="2" transform="rotate(-34.7596 -403.401 674.714)" fill="#DDF4A6"/>
<rect x="-397.7" y="682.929" width="820" height="2" transform="rotate(-34.7596 -397.7 682.929)" fill="#DDF4A6"/>
<rect x="-391.999" y="691.145" width="820" height="2" transform="rotate(-34.7596 -391.999 691.145)" fill="#DDF4A6"/>
<rect x="-386.297" y="699.36" width="820" height="2" transform="rotate(-34.7596 -386.297 699.36)" fill="#DDF4A6"/>
<rect x="-380.596" y="707.576" width="820" height="2" transform="rotate(-34.7596 -380.596 707.576)" fill="#DDF4A6"/>
<rect x="-374.895" y="715.792" width="820" height="2" transform="rotate(-34.7596 -374.895 715.792)" fill="#DDF4A6"/>
<rect x="-369.193" y="724.007" width="820" height="2" transform="rotate(-34.7596 -369.193 724.007)" fill="#DDF4A6"/>
<rect x="-363.492" y="732.222" width="820" height="2" transform="rotate(-34.7596 -363.492 732.222)" fill="#DDF4A6"/>
<rect x="-357.791" y="740.438" width="820" height="2" transform="rotate(-34.7596 -357.791 740.438)" fill="#DDF4A6"/>
<rect x="-352.089" y="748.654" width="820" height="2" transform="rotate(-34.7596 -352.089 748.654)" fill="#DDF4A6"/>
<rect x="-346.388" y="756.869" width="820" height="2" transform="rotate(-34.7596 -346.388 756.869)" fill="#DDF4A6"/>
<rect x="-340.687" y="765.084" width="820" height="2" transform="rotate(-34.7596 -340.687 765.084)" fill="#DDF4A6"/>
<rect x="-334.985" y="773.3" width="820" height="2" transform="rotate(-34.7596 -334.985 773.3)" fill="#DDF4A6"/>
<rect x="-329.284" y="781.516" width="820" height="2" transform="rotate(-34.7596 -329.284 781.516)" fill="#DDF4A6"/>
<rect x="-323.583" y="789.731" width="820" height="2" transform="rotate(-34.7596 -323.583 789.731)" fill="#DDF4A6"/>
<rect x="-317.881" y="797.947" width="820" height="2" transform="rotate(-34.7596 -317.881 797.947)" fill="#DDF4A6"/>
<rect x="-312.18" y="806.162" width="820" height="2" transform="rotate(-34.7596 -312.18 806.162)" fill="#DDF4A6"/>
<rect x="-306.479" y="814.378" width="820" height="2" transform="rotate(-34.7596 -306.479 814.378)" fill="#DDF4A6"/>
<rect x="-300.777" y="822.593" width="820" height="2" transform="rotate(-34.7596 -300.777 822.593)" fill="#DDF4A6"/>
<rect x="-295.076" y="830.809" width="820" height="2" transform="rotate(-34.7596 -295.076 830.809)" fill="#DDF4A6"/>
<rect x="-289.375" y="839.024" width="820" height="2" transform="rotate(-34.7596 -289.375 839.024)" fill="#DDF4A6"/>
<rect x="-283.673" y="847.24" width="820" height="2" transform="rotate(-34.7596 -283.673 847.24)" fill="#DDF4A6"/>
<rect x="-277.972" y="855.455" width="820" height="2" transform="rotate(-34.7596 -277.972 855.455)" fill="#DDF4A6"/>
<rect x="-272.271" y="863.671" width="820" height="2" transform="rotate(-34.7596 -272.271 863.671)" fill="#DDF4A6"/>
<rect x="-266.569" y="871.886" width="820" height="2" transform="rotate(-34.7596 -266.569 871.886)" fill="#DDF4A6"/>
<rect x="-260.868" y="880.102" width="820" height="2" transform="rotate(-34.7596 -260.868 880.102)" fill="#DDF4A6"/>
<rect x="-255.166" y="888.317" width="820" height="2" transform="rotate(-34.7596 -255.166 888.317)" fill="#DDF4A6"/>
<rect x="-249.465" y="896.533" width="820" height="2" transform="rotate(-34.7596 -249.465 896.533)" fill="#DDF4A6"/>
<rect x="-243.764" y="904.748" width="820" height="2" transform="rotate(-34.7596 -243.764 904.748)" fill="#DDF4A6"/>
<rect x="-238.062" y="912.964" width="820" height="2" transform="rotate(-34.7596 -238.062 912.964)" fill="#DDF4A6"/>
<rect x="-232.361" y="921.179" width="820" height="2" transform="rotate(-34.7596 -232.361 921.179)" fill="#DDF4A6"/>
<rect x="-226.66" y="929.395" width="820" height="2" transform="rotate(-34.7596 -226.66 929.395)" fill="#DDF4A6"/>
<rect x="-220.958" y="937.61" width="820" height="2" transform="rotate(-34.7596 -220.958 937.61)" fill="#DDF4A6"/>
<rect x="-215.257" y="945.826" width="820" height="2" transform="rotate(-34.7596 -215.257 945.826)" fill="#DDF4A6"/>
<rect x="-209.556" y="954.041" width="820" height="2" transform="rotate(-34.7596 -209.556 954.041)" fill="#DDF4A6"/>
<rect x="-203.854" y="962.257" width="820" height="2" transform="rotate(-34.7596 -203.854 962.257)" fill="#DDF4A6"/>
<rect x="-198.153" y="970.472" width="820" height="2" transform="rotate(-34.7596 -198.153 970.472)" fill="#DDF4A6"/>
<rect x="-192.452" y="978.688" width="820" height="2" transform="rotate(-34.7596 -192.452 978.688)" fill="#DDF4A6"/>
<rect x="-186.75" y="986.903" width="820" height="2" transform="rotate(-34.7596 -186.75 986.903)" fill="#DDF4A6"/>
<rect x="-181.049" y="995.119" width="820" height="2" transform="rotate(-34.7596 -181.049 995.119)" fill="#DDF4A6"/>
<rect x="-175.348" y="1003.33" width="820" height="2" transform="rotate(-34.7596 -175.348 1003.33)" fill="#DDF4A6"/>
<rect x="-169.646" y="1011.55" width="820" height="2" transform="rotate(-34.7596 -169.646 1011.55)" fill="#DDF4A6"/>
<rect x="-163.945" y="1019.77" width="820" height="2" transform="rotate(-34.7596 -163.945 1019.77)" fill="#DDF4A6"/>
<rect x="-158.244" y="1027.98" width="820" height="2" transform="rotate(-34.7596 -158.244 1027.98)" fill="#DDF4A6"/>
<rect x="-152.542" y="1036.2" width="820" height="2" transform="rotate(-34.7596 -152.542 1036.2)" fill="#DDF4A6"/>
<rect x="-146.841" y="1044.41" width="820" height="2" transform="rotate(-34.7596 -146.841 1044.41)" fill="#DDF4A6"/>
<rect x="-141.14" y="1052.63" width="820" height="2" transform="rotate(-34.7596 -141.14 1052.63)" fill="#DDF4A6"/>
<rect x="-135.438" y="1060.84" width="820" height="2" transform="rotate(-34.7596 -135.438 1060.84)" fill="#DDF4A6"/>
<rect x="-129.737" y="1069.06" width="820" height="2" transform="rotate(-34.7596 -129.737 1069.06)" fill="#DDF4A6"/>
<rect x="-124.036" y="1077.27" width="820" height="2" transform="rotate(-34.7596 -124.036 1077.27)" fill="#DDF4A6"/>
<rect x="-118.334" y="1085.49" width="820" height="2" transform="rotate(-34.7596 -118.334 1085.49)" fill="#DDF4A6"/>
<rect x="-112.633" y="1093.71" width="820" height="2" transform="rotate(-34.7596 -112.633 1093.71)" fill="#DDF4A6"/>
<rect x="-106.932" y="1101.92" width="820" height="2" transform="rotate(-34.7596 -106.932 1101.92)" fill="#DDF4A6"/>
<rect x="-101.23" y="1110.14" width="820" height="2" transform="rotate(-34.7596 -101.23 1110.14)" fill="#DDF4A6"/>
<rect x="-95.5288" y="1118.35" width="820" height="2" transform="rotate(-34.7596 -95.5288 1118.35)" fill="#DDF4A6"/>
<rect x="-89.8275" y="1126.57" width="820" height="2" transform="rotate(-34.7596 -89.8275 1126.57)" fill="#DDF4A6"/>
<rect x="-84.1262" y="1134.78" width="820" height="2" transform="rotate(-34.7596 -84.1262 1134.78)" fill="#DDF4A6"/>
<rect x="-78.4248" y="1143" width="820" height="2" transform="rotate(-34.7596 -78.4248 1143)" fill="#DDF4A6"/>
<rect x="-72.7235" y="1151.21" width="820" height="2" transform="rotate(-34.7596 -72.7235 1151.21)" fill="#DDF4A6"/>
<rect x="-67.0221" y="1159.43" width="820" height="2" transform="rotate(-34.7596 -67.0221 1159.43)" fill="#DDF4A6"/>
<rect x="-61.3208" y="1167.64" width="820" height="2" transform="rotate(-34.7596 -61.3208 1167.64)" fill="#DDF4A6"/>
<rect x="-55.6195" y="1175.86" width="820" height="2" transform="rotate(-34.7596 -55.6195 1175.86)" fill="#DDF4A6"/>
<rect x="-49.9181" y="1184.08" width="820" height="2" transform="rotate(-34.7596 -49.9181 1184.08)" fill="#DDF4A6"/>
<rect x="-44.2168" y="1192.29" width="820" height="2" transform="rotate(-34.7596 -44.2168 1192.29)" fill="#DDF4A6"/>
<rect x="-38.5154" y="1200.51" width="820" height="2" transform="rotate(-34.7596 -38.5154 1200.51)" fill="#DDF4A6"/>
<rect x="-32.8141" y="1208.72" width="820" height="2" transform="rotate(-34.7596 -32.8141 1208.72)" fill="#DDF4A6"/>
<rect x="-27.1128" y="1216.94" width="820" height="2" transform="rotate(-34.7596 -27.1128 1216.94)" fill="#DDF4A6"/>
<rect x="-21.4114" y="1225.15" width="820" height="2" transform="rotate(-34.7596 -21.4114 1225.15)" fill="#DDF4A6"/>
</g>
<mask id="mask2_105_1250" style="mask-type:alpha" maskUnits="userSpaceOnUse" x="-154" y="-279" width="580" height="487">
<rect x="-154" y="-279" width="580" height="487" fill="#FBCCCF"/>
</mask>
<g mask="url(#mask2_105_1250)">
<rect x="-321.881" y="1.94641" width="820" height="2" transform="rotate(-34.7596 -321.881 1.94641)" fill="#DDF4A6"/>
<rect x="-316.18" y="10.162" width="820" height="2" transform="rotate(-34.7596 -316.18 10.162)" fill="#DDF4A6"/>
<rect x="-310.479" y="18.3774" width="820" height="2" transform="rotate(-34.7596 -310.479 18.3774)" fill="#DDF4A6"/>
<rect x="-304.777" y="26.593" width="820" height="2" transform="rotate(-34.7596 -304.777 26.593)" fill="#DDF4A6"/>
<rect x="-299.076" y="34.8085" width="820" height="2" transform="rotate(-34.7596 -299.076 34.8085)" fill="#DDF4A6"/>
<rect x="-293.375" y="43.024" width="820" height="2" transform="rotate(-34.7596 -293.375 43.024)" fill="#DDF4A6"/>
<rect x="-287.673" y="51.2395" width="820" height="2" transform="rotate(-34.7596 -287.673 51.2395)" fill="#DDF4A6"/>
<rect x="-281.972" y="59.4551" width="820" height="2" transform="rotate(-34.7596 -281.972 59.4551)" fill="#DDF4A6"/>
<rect x="-276.271" y="67.6705" width="820" height="2" transform="rotate(-34.7596 -276.271 67.6705)" fill="#DDF4A6"/>
<rect x="-270.569" y="75.8861" width="820" height="2" transform="rotate(-34.7596 -270.569 75.8861)" fill="#DDF4A6"/>
<rect x="-264.868" y="84.1016" width="820" height="2" transform="rotate(-34.7596 -264.868 84.1016)" fill="#DDF4A6"/>
<rect x="-259.166" y="92.3171" width="820" height="2" transform="rotate(-34.7596 -259.166 92.3171)" fill="#DDF4A6"/>
<rect x="-253.465" y="100.533" width="820" height="2" transform="rotate(-34.7596 -253.465 100.533)" fill="#DDF4A6"/>
<rect x="-247.764" y="108.748" width="820" height="2" transform="rotate(-34.7596 -247.764 108.748)" fill="#DDF4A6"/>
<rect x="-242.062" y="116.964" width="820" height="2" transform="rotate(-34.7596 -242.062 116.964)" fill="#DDF4A6"/>
<rect x="-236.361" y="125.179" width="820" height="2" transform="rotate(-34.7596 -236.361 125.179)" fill="#DDF4A6"/>
<rect x="-230.66" y="133.395" width="820" height="2" transform="rotate(-34.7596 -230.66 133.395)" fill="#DDF4A6"/>
<rect x="-224.958" y="141.61" width="820" height="2" transform="rotate(-34.7596 -224.958 141.61)" fill="#DDF4A6"/>
<rect x="-219.257" y="149.826" width="820" height="2" transform="rotate(-34.7596 -219.257 149.826)" fill="#DDF4A6"/>
<rect x="-213.556" y="158.041" width="820" height="2" transform="rotate(-34.7596 -213.556 158.041)" fill="#DDF4A6"/>
<rect x="-207.854" y="166.257" width="820" height="2" transform="rotate(-34.7596 -207.854 166.257)" fill="#DDF4A6"/>
<rect x="-202.153" y="174.472" width="820" height="2" transform="rotate(-34.7596 -202.153 174.472)" fill="#DDF4A6"/>
<rect x="-196.452" y="182.688" width="820" height="2" transform="rotate(-34.7596 -196.452 182.688)" fill="#DDF4A6"/>
<rect x="-190.75" y="190.903" width="820" height="2" transform="rotate(-34.7596 -190.75 190.903)" fill="#DDF4A6"/>
<rect x="-185.049" y="199.119" width="820" height="2" transform="rotate(-34.7596 -185.049 199.119)" fill="#DDF4A6"/>
<rect x="-179.348" y="207.334" width="820" height="2" transform="rotate(-34.7596 -179.348 207.334)" fill="#DDF4A6"/>
<rect x="-173.646" y="215.55" width="820" height="2" transform="rotate(-34.7596 -173.646 215.55)" fill="#DDF4A6"/>
<rect x="-167.945" y="223.765" width="820" height="2" transform="rotate(-34.7596 -167.945 223.765)" fill="#DDF4A6"/>
<rect x="-162.244" y="231.981" width="820" height="2" transform="rotate(-34.7596 -162.244 231.981)" fill="#DDF4A6"/>
<rect x="-156.542" y="240.196" width="820" height="2" transform="rotate(-34.7596 -156.542 240.196)" fill="#DDF4A6"/>
<rect x="-150.841" y="248.412" width="820" height="2" transform="rotate(-34.7596 -150.841 248.412)" fill="#DDF4A6"/>
<rect x="-145.14" y="256.627" width="820" height="2" transform="rotate(-34.7596 -145.14 256.627)" fill="#DDF4A6"/>
<rect x="-139.438" y="264.843" width="820" height="2" transform="rotate(-34.7596 -139.438 264.843)" fill="#DDF4A6"/>
<rect x="-133.737" y="273.058" width="820" height="2" transform="rotate(-34.7596 -133.737 273.058)" fill="#DDF4A6"/>
<rect x="-128.036" y="281.274" width="820" height="2" transform="rotate(-34.7596 -128.036 281.274)" fill="#DDF4A6"/>
<rect x="-122.334" y="289.49" width="820" height="2" transform="rotate(-34.7596 -122.334 289.49)" fill="#DDF4A6"/>
<rect x="-116.633" y="297.705" width="820" height="2" transform="rotate(-34.7596 -116.633 297.705)" fill="#DDF4A6"/>
<rect x="-110.932" y="305.921" width="820" height="2" transform="rotate(-34.7596 -110.932 305.921)" fill="#DDF4A6"/>
<rect x="-105.23" y="314.136" width="820" height="2" transform="rotate(-34.7596 -105.23 314.136)" fill="#DDF4A6"/>
<rect x="-99.5288" y="322.352" width="820" height="2" transform="rotate(-34.7596 -99.5288 322.352)" fill="#DDF4A6"/>
<rect x="-93.8275" y="330.567" width="820" height="2" transform="rotate(-34.7596 -93.8275 330.567)" fill="#DDF4A6"/>
<rect x="-88.1262" y="338.783" width="820" height="2" transform="rotate(-34.7596 -88.1262 338.783)" fill="#DDF4A6"/>
<rect x="-82.4248" y="346.998" width="820" height="2" transform="rotate(-34.7596 -82.4248 346.998)" fill="#DDF4A6"/>
<rect x="-76.7235" y="355.214" width="820" height="2" transform="rotate(-34.7596 -76.7235 355.214)" fill="#DDF4A6"/>
<rect x="-71.0221" y="363.429" width="820" height="2" transform="rotate(-34.7596 -71.0221 363.429)" fill="#DDF4A6"/>
<rect x="-65.3208" y="371.645" width="820" height="2" transform="rotate(-34.7596 -65.3208 371.645)" fill="#DDF4A6"/>
<rect x="-59.6195" y="379.86" width="820" height="2" transform="rotate(-34.7596 -59.6195 379.86)" fill="#DDF4A6"/>
<rect x="-53.9181" y="388.076" width="820" height="2" transform="rotate(-34.7596 -53.9181 388.076)" fill="#DDF4A6"/>
<rect x="-48.2168" y="396.291" width="820" height="2" transform="rotate(-34.7596 -48.2168 396.291)" fill="#DDF4A6"/>
<rect x="-42.5154" y="404.507" width="820" height="2" transform="rotate(-34.7596 -42.5154 404.507)" fill="#DDF4A6"/>
<rect x="-36.8141" y="412.722" width="820" height="2" transform="rotate(-34.7596 -36.8141 412.722)" fill="#DDF4A6"/>
<rect x="-31.1128" y="420.938" width="820" height="2" transform="rotate(-34.7596 -31.1128 420.938)" fill="#DDF4A6"/>
<rect x="-25.4114" y="429.153" width="820" height="2" transform="rotate(-34.7596 -25.4114 429.153)" fill="#DDF4A6"/>
</g>
<circle cx="136" cy="104" r="40" fill="white"/>
<path d="M42 34H141L114.5 105H42V34Z" fill="#123E23"/>
<path d="M55.4668 76.5352V60.2402L50.5273 55.793H64.5547V65.4258H74.2227V55.793H87.916L83.3105 60.2578V76.5352L88.25 81H74.2227V69.0996H64.5547V81H50.5273L55.4668 76.5352Z" fill="white"/>
<path d="M87.502 76.5352V60.75L82.0879 55.793H95.5176L109.686 68.4492V60.2578L104.764 55.793L118.879 55.793L114.467 60.2578V81H109.686L92.2832 65.1094V76.5352L97.5742 81H82.7383L87.502 76.5352Z" fill="white"/>
</svg>
