<svg width="156" height="156" viewBox="0 0 156 156" fill="none" xmlns="http://www.w3.org/2000/svg">
<path d="M90.5591 111.609C89.7099 109.347 85.487 110.837 81.7505 107.749C80.2065 106.459 78.6625 101.341 78.6625 101.341C78.6625 101.341 82.5225 104.089 84.7536 102.067C86.9847 100.044 85.9734 94.1844 81.6656 95.6976C77.0953 97.3188 75.9064 95.5818 70.6876 93.7984C65.4689 92.0151 62.3577 95.2884 62.3577 95.2884C54.3365 94.3388 49.4266 95.9755 45.6669 98.0522C42.3472 94.1921 36.1712 96.9559 33.0986 99.851C29.5396 103.201 30.2267 105.934 30.6359 106.799C26.1351 110.288 26.0038 113.832 26.3204 116.465C26.5814 119.233 27.6941 121.852 29.5052 123.962C31.3163 126.072 33.7369 127.568 36.4337 128.245C36.4337 128.245 36.3101 134.035 37.9159 134.56C39.5217 135.085 40.147 133.086 43.32 131.472C46.7477 130.577 50.3838 127.026 48.4693 124.524C52.7385 127.172 59.177 125.559 59.7097 118.688C61.8095 122.764 71.4519 122.27 76.6938 120.008C77.3269 124.864 75.7829 129.457 73.683 131.426C70.595 134.298 68.0551 134.066 66.4725 135.425C64.8899 136.784 68.6495 140.945 77.2806 135.587C84.9312 130.832 85.487 122.671 80.1679 116.071C85.4484 117.53 91.4392 113.948 90.5591 111.609ZM46.3617 112.466C46.3076 112.589 45.3118 106.845 50.4147 104.182C53.9274 102.345 57.9881 103.595 58.4436 106.398C59.038 110.072 48.9556 105.687 46.3617 112.466Z" fill="#DDF4A6"/>
<path d="M34.2877 89.1427C31.8636 87.4906 35.9321 74.0423 40.3943 74.2584C45.644 74.5132 53.642 86.0547 50.8396 90.2235C49.3033 92.5087 38.3408 91.8988 34.2877 89.1427Z" fill="#DDF4A6"/>
<path d="M20.5226 79.7014C19.4495 78.9294 21.2483 72.7534 23.2169 72.8228C25.5329 72.9386 29.0687 78.2732 27.849 80.2032C27.1464 81.2455 22.3137 80.9907 20.5226 79.7014Z" fill="#DDF4A6"/>
<path d="M55.1311 76.0883C54.2433 75.4707 55.7255 70.4835 57.3467 70.5607C59.2536 70.6611 62.1563 74.938 61.1373 76.4897C60.5814 77.3389 56.5979 77.1073 55.1311 76.0883Z" fill="#DDF4A6"/>
<path d="M107.064 24.5259C107.064 24.5259 114.453 19.5388 116.668 20.7585C119.27 22.1945 117.849 23.1518 119.27 24.4333C121.13 26.1163 128.874 23.4837 130.371 25.2053C132.363 27.5213 128.827 29.9068 129.869 32.2074C130.912 34.508 136.269 34.8863 136.269 36.1678C136.269 37.8739 133.953 37.6423 133.776 39.2558C133.683 39.9584 135.034 43.0695 133.984 43.6022C132.934 44.1349 128.92 39.2327 126.148 39.6959C124.118 40.0356 122.582 42.5832 120.613 42.5291C117.579 42.4442 111.967 36.8858 110.098 38.0824C108.23 39.279 107.636 42.5214 105.683 42.4442C103.729 42.367 101.421 37.1791 99.9619 37.542C98.5028 37.9048 95.8549 42.5986 94.3108 42.2744C92.6494 41.8005 90.9277 41.5716 89.2001 41.595C87.3165 41.6645 82.8157 44.297 79.8589 43.7026C78.3148 43.3938 77.1105 41.6645 75.7904 42.0119C73.6133 42.5755 71.7528 45.9877 70.8573 45.3547C70.1239 44.8374 71.444 42.6063 70.8573 41.4483C70.5176 40.8076 68.5412 40.4447 68.3174 39.3021C68.0163 38.0129 73.7523 36.1138 73.8758 34.1529C73.9993 32.192 72.795 32.6088 73.4358 30.5939C74.0765 28.579 80.0287 29.8682 82.1286 30.3005C84.792 33.6819 89.5321 38.0206 100.34 34.5234C106.231 32.6088 107.064 24.5259 107.064 24.5259Z" fill="#DDF4A6"/>
<path d="M101.706 71.9042C100.062 72.4523 98.5796 72.7225 97.1205 71.7035C97.0136 71.6264 96.8925 71.5712 96.7642 71.541C96.6359 71.5107 96.5029 71.506 96.3728 71.5272C96.2427 71.5483 96.118 71.5949 96.0059 71.6642C95.8938 71.7335 95.7964 71.8243 95.7194 71.9312C95.6423 72.0382 95.5871 72.1593 95.5568 72.2876C95.5266 72.4159 95.5219 72.5489 95.543 72.679C95.5642 72.8091 95.6107 72.9338 95.6801 73.0459C95.7494 73.158 95.8401 73.2554 95.9471 73.3324C98.1319 74.8764 100.432 74.4827 102.432 73.7802C102.555 73.7325 102.668 73.6611 102.763 73.5699C102.859 73.4788 102.936 73.3697 102.989 73.2489C103.042 73.1281 103.071 72.998 103.075 72.8659C103.078 72.7339 103.055 72.6025 103.007 72.4794C102.959 72.3562 102.888 72.2436 102.797 72.148C102.706 72.0525 102.597 71.9758 102.476 71.9224C102.355 71.869 102.225 71.8399 102.093 71.8368C101.961 71.8336 101.829 71.8566 101.706 71.9042Z" fill="#123E23"/>
<path d="M101.545 62.6556C100.168 62.018 98.6279 61.8237 97.1364 62.0997C95.5924 62.3931 94.4421 63.2114 94.9362 64.0143C95.0704 64.2423 95.2874 64.4097 95.5419 64.4816C95.7965 64.5535 96.069 64.5244 96.3026 64.4003C97.5224 63.6283 99.4988 63.829 101.043 64.5315C101.262 64.5267 101.473 64.451 101.645 64.3158C101.817 64.1806 101.941 63.9932 101.997 63.7818C102.054 63.5704 102.04 63.3463 101.959 63.1432C101.877 62.9401 101.732 62.769 101.545 62.6556Z" fill="#123E23"/>
<path d="M80.0596 49.971C81.7657 49.3688 82.7693 48.6817 85.0545 48.9133C86.529 49.0677 86.5444 47.0296 85.1548 46.8366C83.2376 46.6799 81.3174 47.1022 79.6427 48.0487C78.477 48.6817 79.2567 50.2643 80.0596 49.971Z" fill="#123E23"/>
<path d="M83.5032 50.9903C73.2586 52.2796 75.9452 66.1217 85.1012 65.3497C94.5506 64.5545 92.7132 49.84 83.5032 50.9903ZM89.0153 60.4474C88.6572 61.335 88.024 62.0844 87.2088 62.5859C84.8928 60.5941 81.3261 58.0233 79.1645 56.5102C81.4187 49.8786 91.8949 53.2137 89.0462 60.4474H89.0153Z" fill="#123E23"/>
<path d="M96.5191 60.1696C96.6174 60.2724 96.7365 60.3532 96.8684 60.4065C97.0003 60.4598 97.142 60.4844 97.2841 60.4788C97.4263 60.4731 97.5656 60.4373 97.6929 60.3737C97.8201 60.3102 97.9324 60.2202 98.0223 60.11C98.1122 59.9997 98.1776 59.8716 98.2142 59.7341C98.2508 59.5966 98.2577 59.453 98.2346 59.3126C98.2114 59.1722 98.1587 59.0384 98.0799 58.92C98.0011 58.8015 97.898 58.7012 97.7775 58.6256C94.728 56.711 97.5999 53.3528 100.534 54.588C101.738 55.0976 102.556 53.1753 101.306 52.7429C100.428 52.4262 99.4882 52.3212 98.5625 52.4366C97.6368 52.552 96.7515 52.8844 95.9787 53.4069C93.8943 54.9972 93.377 58.0235 96.5191 60.1696Z" fill="#123E23"/>
<path d="M113.511 48.2267C102.703 48.1803 104.139 63.9525 113.943 62.8948C123.385 61.9452 122.404 48.2653 113.511 48.2267ZM116.197 60.1156C113.958 58.1238 110.276 55.4835 108.006 53.8855C111.735 45.1927 124.002 53.6153 116.197 60.1156Z" fill="#123E23"/>
<path d="M103.768 66.3605C102.649 67.2792 100.225 68.252 99.4527 66.4455C99.3693 66.2507 99.2268 66.087 99.0454 65.9776C98.8639 65.8681 98.6526 65.8185 98.4414 65.8356C96.5268 65.9591 97.9937 68.8078 94.7281 66.4995C93.6627 65.7275 92.6977 67.0785 93.5083 68.0976C94.4733 69.3173 97.5073 70.5371 98.6653 68.6997C100.441 71.0157 104.069 69.0085 105.166 67.6189C105.316 67.4313 105.388 67.1934 105.369 66.954C105.349 66.7146 105.239 66.4918 105.06 66.331C104.882 66.1703 104.648 66.0838 104.408 66.0893C104.168 66.0948 103.939 66.1918 103.768 66.3605Z" fill="#123E23"/>
<path d="M108.786 46.0185C110.479 45.6086 112.251 45.6673 113.912 46.1883C114.684 46.3891 115.302 44.8991 114.36 44.2892C112.917 43.3474 109.543 43.5172 108.254 44.0808C107.997 44.1514 107.778 44.3212 107.647 44.5529C107.515 44.7845 107.48 45.059 107.551 45.316C107.622 45.5729 107.792 45.7913 108.023 45.9231C108.255 46.0548 108.529 46.0891 108.786 46.0185Z" fill="#123E23"/>
<path d="M23.0775 77.8876C21.9967 77.9803 22.0122 79.4316 23.3632 79.3158C24.4749 79.1692 24.4208 77.6792 23.0775 77.8876Z" fill="#123E23"/>
<path d="M42.3315 86.2636C43.6207 85.9625 43.6825 85.6769 43.613 82.6352C43.5435 79.3541 43.2347 74.2743 39.7993 74.9151C36.2326 75.0155 39.2357 87.0047 42.3315 86.2636Z" fill="#123E23"/>
<path d="M35.7929 120.162C34.4264 120.301 34.0095 120.656 34.0867 121.359C34.1485 121.876 34.5422 122.324 35.6307 122.246C36.5185 122.185 38.0934 123.065 38.6493 124.802C39.2051 126.539 40.8649 125.635 40.6256 124.207C40.3554 122.293 38.3945 119.899 35.7929 120.162Z" fill="#123E23"/>
<path d="M42.7871 87.3442C40.1159 87.8615 40.3861 91.5594 42.9415 91.3818C45.8056 91.1811 45.6744 86.7807 42.7871 87.3442Z" fill="#123E23"/>
<path d="M23.7496 76.0573C23.7372 75.4501 23.6033 74.8516 23.3559 74.2971C23.1397 73.9883 22.1824 73.996 21.8118 74.2971C21.1711 74.7989 21.7038 77.4623 22.6919 77.4546C23.3481 77.3851 23.8808 77.223 23.7496 76.0573Z" fill="#123E23"/>
<path d="M149.702 109.894C147.673 109.655 145.631 109.537 143.588 109.539C149.416 102.005 151.439 97.1023 151.439 91.0111C151.439 78.7903 139.681 65.2107 130.726 59.4669C134.517 57.7067 137.527 53.7155 137.149 49.3073C140.021 47.964 138.608 43.3551 139.056 40.7612C140.006 39.0087 142.762 38.6768 142.198 35.3108C141.735 30.2696 132.625 33.1878 134.64 27.6679C135.057 26.0776 135.636 23.8928 133.915 22.1249C132.131 19.8475 124.859 21.6617 122.45 20.4728C121.369 12.4671 116.405 13.9725 110.623 17.5469C99.5525 5.58853 78.8704 9.63385 65.0437 18.7127C58.335 23.1594 48.2449 34.3998 54.8918 59.521C46.2685 59.3743 35.5917 59.135 26.5206 59.0655C4.30992 58.857 1.90898 61.4664 6.99651 79.8402C8.54052 88.2937 10.8565 98.9319 12.1998 104.915C13.5354 110.319 13.5817 116.016 17.9667 118.317C13.7053 125.721 18.4994 127.581 24.1428 124.362C26.0333 127.025 28.5813 129.153 31.5386 130.538C31.0445 141.91 37.236 138.961 42.3467 132.923C44.1223 131.727 46.1604 132.151 48.0982 130.383C56.6443 136.112 64.1328 132.29 73.7134 129.866C71.2275 134.328 58.5512 134.969 57.5012 138.914C56.3741 143.23 59.1379 145.97 62.5888 146.194C70.6099 146.711 83.6723 139.13 84.977 127.334C90.906 125.906 105.435 122.656 108.763 120.911C110.422 120.139 110.438 117.923 110.438 116.719C110.515 114.225 109.419 113.631 103.081 111.361C115.232 112.21 140.616 111.508 149.401 111.547C150.667 111.554 151.014 109.879 149.702 109.894ZM132.61 56.0855C128.85 58.9574 127.098 57.838 127.02 61.2271C126.797 71.6801 110.862 76.5283 98.1165 77.2154C96.0089 77.3234 94.2024 77.1382 92.3265 77.0687C86.4206 76.8525 82.3907 75.0306 80.2291 73.2086C77.8587 71.3068 75.937 68.9054 74.6012 66.1757C72.3308 60.9512 71.832 55.1274 73.1807 49.5929C75.5739 46.6284 75.3732 45.7329 76.3845 45.5785C77.1565 45.4395 79.1946 47.0067 81.0166 46.667C83.7803 46.1652 86.6522 43.2084 88.9374 42.3978C91.2534 42.7838 93.1757 46.2579 95.8854 45.7098C98.6569 45.4627 99.4675 41.1549 101.475 40.3057C102.864 40.7921 103.698 43.2625 105.945 42.9846C110.731 42.1122 108.431 36.6464 113.881 42.1662C116.591 45.0227 118.714 46.1189 120.922 45.9722C123.57 45.8024 124.913 43.3783 126.673 43.4246C128.842 43.4786 132.147 49.315 135.165 49.6007C135.325 50.8096 135.174 52.0394 134.727 53.174C134.28 54.3086 133.551 55.3106 132.61 56.0855ZM111.457 19.4306C113.642 17.9561 117.386 16.2808 118.613 16.69C120.312 17.2613 119.71 20.55 120.929 21.8084C122.581 24.0704 130.386 21.9705 132.509 23.5531C134.416 25.5295 130.857 29.3664 133.096 31.6206C134.586 33.705 139.743 33.2882 140.253 35.6582C140.175 38.9933 136.03 37.8739 137.018 43.633C137.574 53.9934 130.217 40.7071 126.496 41.4097C123.986 41.7185 123.191 44.1271 120.489 44.0885C116.629 43.8029 110.801 33.3808 107.427 39.719C106.933 40.491 106.655 40.9079 105.844 40.9619C104.215 40.8538 103.474 37.9511 101.32 38.2908C98.5566 38.3988 97.8154 43.0309 95.5921 43.6948C93.5308 43.6948 91.4618 40.2439 89.1072 40.3597C85.8185 40.5219 82.0897 46.5358 78.2991 43.8955C78.0183 43.6823 77.6963 43.5296 77.3534 43.4472C77.0106 43.3648 76.6544 43.3545 76.3073 43.4169C73.752 43.6485 71.5286 50.7278 68.9424 49.3922C66.8965 48.5199 69.9074 44.8219 67.2748 42.2898C64.9588 40.0895 62.1101 38.7617 66.7576 37.0324C77.1565 33.1724 59.2382 26.9963 79.0325 27.4904C83.0238 40.2517 107.35 39.6958 107.991 25.1744C110.391 24.2325 112.067 21.9628 111.457 19.4306ZM66.1554 20.3493C76.6161 13.3472 89.1612 10.4676 99.5833 13.1851C105.597 14.7291 112.962 19.1295 107.736 23.0745C107.39 21.8376 106.781 20.6897 105.952 19.7085C105.095 18.7281 103.768 19.778 104.648 20.7353C106.709 22.9587 106.57 27.915 104.37 29.9994C103.824 28.6571 103.074 27.4072 102.146 26.2938C101.974 26.089 101.728 25.961 101.462 25.9378C101.195 25.9146 100.931 25.9983 100.726 26.1702C100.521 26.3422 100.393 26.5885 100.37 26.8549C100.347 27.1213 100.43 27.386 100.602 27.5907C101.436 28.5789 102.64 30.478 102.71 31.7055C100.673 33.2661 98.2389 34.2236 95.6847 34.4693C95.4117 32.6448 94.8433 30.8769 94.0017 29.2351C93.8809 28.9976 93.6707 28.8178 93.4174 28.7353C93.164 28.6528 92.8882 28.6743 92.6507 28.7951C92.4132 28.9159 92.2334 29.1261 92.1509 29.3794C92.0684 29.6328 92.0899 29.9086 92.2107 30.1461C92.9281 31.5423 93.4205 33.043 93.6698 34.5928C87.154 34.6546 80.4607 30.8949 80.2986 23.2752C80.2905 23.0083 80.1772 22.7555 79.9834 22.5718C79.7896 22.3881 79.531 22.2885 79.2641 22.2948C77.7201 22.4569 78.4226 24.4332 78.4921 25.4291C70.4401 24.9736 64.9974 26.8187 67.8384 32.3309C68.8806 34.3612 67.5836 34.3612 65.9393 35.1796C58.5512 38.2676 62.2722 41.1317 66.387 44.49C66.6109 46.1035 65.615 48.35 66.6881 50.0253C62.9207 51.4689 57.4858 51.9862 55.3705 52.1329C53.1317 37.7118 56.845 26.5794 66.1554 20.3493ZM15.8823 111.794C13.4042 101.526 11.4819 92.2232 8.97285 79.4851C8.20084 74.9302 5.36758 66.801 7.50604 63.8828C13.381 58.8107 37.707 61.8061 47.8203 61.3738C54.7374 61.9451 60.597 60.4011 64.9743 63.8288C69.1431 67.1252 69.3438 82.8201 71.822 88.3091C69.2048 87.4599 64.6809 89.3204 63.1832 90.4939C61.6057 90.3305 60.0166 90.3098 58.4353 90.4321C55.7565 83.4841 45.3112 68.3913 38.7414 70.2287C32.99 71.8422 28.0028 88.2474 27.5859 94.3076C23.4325 97.3956 23.1006 102.954 24.5983 104.869C18.6075 109.501 21.0779 114.766 19.0553 116.619C17.8818 116.086 16.469 114.233 15.8823 111.794ZM76.9095 92.7636C82.1283 96.3457 86.7757 91.8449 88.2194 95.427C89.362 98.2603 84.4211 101.603 82.7536 102.375C78.1215 97.8202 74.2615 92.2927 66.3947 90.9803C70.0155 88.9653 74.3001 90.9725 76.9095 92.7636ZM30.5891 100.044L31.3611 100.476C29.4704 101.185 27.7116 102.205 26.1577 103.494C23.1855 96.1296 35.9622 91.0034 41.7446 94.2304C47.0019 96.3997 43.7286 100.684 38.3477 100.283C34.727 100.044 33.3451 99.3643 31.6621 98.3452C31.438 98.2294 31.1785 98.2022 30.9352 98.2691C30.6919 98.336 30.4828 98.4921 30.3494 98.7063C30.216 98.9204 30.1682 99.177 30.2155 99.4248C30.2628 99.6726 30.4017 99.8936 30.6045 100.044H30.5891ZM29.8942 92.8176C30.7898 87.7224 35.2983 73.3013 39.5675 72.4058C43.8367 71.5102 53.7879 84.1943 56.0344 90.6483C52.2054 90.9462 48.5015 92.1473 45.2263 94.1532C42.8485 91.4975 35.5608 89.8763 29.9097 92.8254L29.8942 92.8176ZM48.3221 126.925C46.091 130.785 43.7827 129.334 41.0343 131.364C37.7301 134.452 33.1135 140.443 33.4378 131.364C34.9818 132.414 37.5062 131.217 35.3678 129.82C30.8593 128.724 25.3317 124.702 24.359 120.116C24.3016 119.855 24.1437 119.628 23.9196 119.483C23.6954 119.339 23.4233 119.289 23.1623 119.344C21.6569 119.822 22.7455 121.66 23.1083 122.625C21.7804 123.219 19.8118 124.732 18.6615 123.999C16.7933 122.802 21.8036 117.19 21.958 114.009C22.3903 107.895 29.2921 102.429 34.4259 101.734C39.2355 103.402 47.7585 101.356 46.2299 95.9443C53.4019 90.9957 68.9964 91.0343 75.628 97.7894C73.7134 96.4306 69.6603 96.2917 67.1359 97.3262C64.2486 98.4996 62.4189 100.268 63.4688 101.464C63.565 101.557 63.6794 101.629 63.8049 101.676C63.9304 101.722 64.0642 101.742 64.1978 101.734C64.3314 101.726 64.4618 101.691 64.5809 101.629C64.6999 101.568 64.805 101.483 64.8893 101.379C72.069 94.3616 80.7464 103.603 85.996 107.609C87.9955 108.806 94.1793 107.401 94.8895 109.655C95.731 114.395 88.3429 117.375 84.3053 117.252C81.9893 117.113 79.0093 114.465 78.0675 113.453C77.1256 112.442 75.6897 113.893 76.6007 114.828C77.1999 115.451 77.8394 116.033 78.5153 116.572C76.6393 122.038 67.3443 123.567 61.369 122.656C61.5543 118.796 60.1646 116.233 57.6247 113.832C65.1132 107.432 56.9531 98.0596 48.8779 104.174C45.5274 106.714 43.0415 111.076 44.8326 114.21C44.9703 114.431 45.1885 114.59 45.4411 114.653C45.6937 114.716 45.961 114.678 46.1865 114.548C46.4119 114.418 46.5779 114.205 46.6494 113.955C46.7209 113.704 46.6923 113.436 46.5696 113.206C45.512 111.361 47.11 107.98 50.0668 105.818C51.5336 104.027 58.7364 102.854 58.6206 108.281C58.3659 110.389 56.2506 112.705 54.2588 114.056C52.846 115.407 55.1312 116.611 56.1039 115.198C64.0015 121.652 56.019 131.472 48.6849 124.555C46.7394 123.304 46.2299 125.89 48.3375 126.925H48.3221ZM69.6526 128.863C61.1605 131.024 56.8836 133.379 49.4723 128.824C49.6576 128.572 49.8429 128.294 50.0282 127.99C53.3015 130.152 59.8327 127.89 60.8363 124.601C65.4143 125.528 72.4164 124.323 75.6511 122.548C75.8115 124.193 75.6086 125.853 75.0567 127.411C73.0572 127.936 71.2738 128.423 69.6681 128.863H69.6526ZM73.8909 140.396C70.6099 142.303 67.0201 144.179 63.739 144.256C60.8286 144.326 58.9603 142.666 59.4081 140.072C59.7092 138.32 62.1796 137.756 63.8934 137.03C70.5327 134.313 78.8549 133.749 77.4885 121.258C78.6069 120.293 79.5115 119.104 80.1442 117.769C85.4942 122.864 83.3943 134.753 73.9064 140.396H73.8909ZM108.384 116.418C108.384 117.035 108.438 118.734 107.906 119.058C104.987 120.679 90.9986 123.829 85.0464 125.234C84.9333 123.16 84.4659 121.121 83.6645 119.205C88.8061 119.637 95.6847 116.511 96.9353 111.384C104.022 113.793 108.423 115.021 108.4 116.418H108.384ZM96.8041 109.238C94.8123 103.834 87.3856 108.35 84.3362 103.834C88.6672 101.603 91.0835 97.2798 89.9101 94.5701C88.7907 91.9607 86.8838 91.8912 82.7613 92.3853C79.1715 92.8099 77.4422 90.1311 74.1766 89.0348C71.7756 82.9591 71.4977 75.1387 69.9614 69.2328C68.5718 63.6821 65.8235 59.629 56.9763 59.5364C56.4866 57.7527 56.0693 55.9499 55.7256 54.1323C58.3195 53.9393 64.6423 53.2986 68.6181 51.3917C69.3782 51.6338 70.1999 51.5955 70.9342 51.2836C68.8343 65.8051 76.4772 78.1572 91.6317 78.8211C88.6826 81.7393 88.9682 84.8042 84.8843 81.4614C84.6987 81.2691 84.4484 81.1525 84.1818 81.134C83.9152 81.1154 83.6511 81.1963 83.4407 81.361C82.769 82.025 83.2477 83.0749 85.1236 84.2406C87.4397 85.6766 89.1381 85.8541 91.153 83.0286C92.9441 80.535 93.8242 79.0991 94.7274 79.0605C97.0434 78.9447 96.7037 84.8505 101.328 85.6534C103.698 86.0703 105.481 84.6807 106.902 83.0981C107.782 82.1176 106.609 80.7048 105.543 81.6467C103.513 83.4455 100.402 85.5067 97.993 79.0605C110.345 78.6281 129.205 73.9343 128.873 60.7485C134.2 63.5894 142.7 70.9389 146.452 78.8443C138.732 78.9987 127.152 82.851 118.104 91.3971C116.56 88.7723 116.004 86.9427 114.776 87.2206C113.742 87.4522 113.873 89.0271 116.22 92.8948C109.89 99.565 107.558 106.791 107.188 109.454C103.575 109.331 99.7146 109.23 96.835 109.238H96.8041ZM109.465 109.547C110.533 104.471 112.925 99.7671 116.398 95.9134C124.326 86.8886 136.007 80.3574 147.386 80.8592C152.659 93.4121 147.787 101.04 140.955 109.524C118.768 109.701 129.545 110.273 109.496 109.547H109.465Z" fill="#123E23"/>
<path d="M38.1323 111.585C37.9624 109.64 36.4339 108.497 34.2722 108.652C32.6124 108.767 31.7632 110.111 32.4966 110.759C33.23 111.408 33.8245 110.196 34.9593 110.705C35.1867 110.805 35.3835 110.964 35.5297 111.165C35.6758 111.366 35.766 111.602 35.7911 111.849C35.8162 112.096 35.7753 112.346 35.6726 112.572C35.5699 112.798 35.409 112.993 35.2064 113.137C32.929 112.295 32.5198 114.789 33.6624 116.542C35.1215 119.182 38.8194 117.561 36.9434 114.542C37.7154 113.515 39.0278 112.936 39.7072 114.712C40.1472 115.87 39.4679 117.128 40.4792 117.507C42.4787 118.302 42.8878 111.168 38.1323 111.585Z" fill="#123E23"/>
<path d="M27.4317 112.666C26.0652 112.666 25.6097 112.951 25.6097 113.662C25.6097 114.187 25.9494 114.673 27.0766 114.719C27.7671 114.87 28.3957 115.227 28.8794 115.743C29.3632 116.258 29.6793 116.908 29.7863 117.607C30.126 119.328 31.8862 118.68 31.8167 117.244C31.724 115.306 30.0488 112.697 27.4317 112.666Z" fill="#123E23"/>
<path d="M16.6313 93.7985C14.8943 84.9435 11.0883 71.2945 12.6786 68.1833C13.9911 65.6356 21.7575 66.6392 25.9495 66.2841C34.5265 66.2841 43.667 66.0757 55.5328 66.2146C59.6553 66.3073 63.0444 65.7978 64.3259 69.9203C64.7274 71.2018 66.1479 71.4643 65.9317 69.542C65.3295 64.1379 60.3347 64.3001 55.5637 64.1997C47.0716 64.1071 35.2367 64.1997 30.7591 64.2846C7.84588 64.2615 7.73008 61.5672 12.6632 84.9899C13.497 87.1978 14.8943 97.8592 16.2222 103.464C16.9247 106.436 17.3647 107.455 18.1059 107.255C18.847 107.054 18.7621 106.097 18.2603 103.526C17.7585 100.955 16.8475 95.9138 16.6313 93.7985Z" fill="#123E23"/>
<path d="M17.8204 74.367C15.8441 78.3042 15.9444 80.543 17.0484 81.6007C18.438 82.944 22.2903 81.9635 25.139 81.8477C31.153 81.6007 31.2456 78.3737 27.4551 73.8652C23.6645 69.3567 20.7154 68.6078 17.8204 74.367ZM27.6789 78.7906C27.54 79.8096 23.4561 80.0721 21.5955 80.1956C18.4457 80.4118 17.3726 80.0644 19.5729 75.3552C21.4488 71.3253 23.1781 71.4951 25.8802 75.1544C26.7525 76.351 27.7947 77.8951 27.6789 78.7906Z" fill="#123E23"/>
<path d="M58.5514 75.1542C59.1227 75.1542 59.3775 74.7528 59.1922 73.8881C59.0455 72.3981 58.5206 71.2247 57.4938 72.1897C56.9611 72.6915 57.6019 75.2314 58.5514 75.1542Z" fill="#123E23"/>
<path d="M57.6715 68.986C54.128 69.6653 52.5377 77.0998 53.8964 78.4045C55.4404 79.8635 57.9263 79.1301 60.2809 79.0221C64.7894 78.8059 65.2295 76.513 63.0833 73.178C60.8522 69.7039 59.2541 68.6849 57.6715 68.986ZM62.6587 76.459C62.2572 77.1847 61.3694 77.231 60.5279 77.3005C56.1584 77.6247 53.1861 79.2845 55.8959 72.8923C58.5053 66.7163 63.2145 75.4785 62.6587 76.459Z" fill="#123E23"/>
<path d="M58.837 75.4936C57.8952 75.5862 57.9106 76.9681 59.0918 76.8369C60.0645 76.6979 60.0182 75.3006 58.837 75.4936Z" fill="#123E23"/>
</svg>
