<svg width="1886" height="528" viewBox="0 0 1886 528" fill="none" xmlns="http://www.w3.org/2000/svg">
<mask id="mask0_2069_3" style="mask-type:alpha" maskUnits="userSpaceOnUse" x="1510" y="0" width="376" height="316">
<rect width="375.917" height="315.641" transform="matrix(-1 0 0 1 1885.92 0)" fill="#FBCCCF"/>
</mask>
<g mask="url(#mask0_2069_3)">
<rect width="531.469" height="1.29627" transform="matrix(-0.821552 -0.570134 -0.570134 0.821552 2050.16 102.219)" fill="#DDF4A6"/>
<rect width="531.469" height="1.29627" transform="matrix(-0.821552 -0.570134 -0.570134 0.821552 2046.46 107.544)" fill="#DDF4A6"/>
<rect width="531.469" height="1.29627" transform="matrix(-0.821552 -0.570134 -0.570134 0.821552 2042.77 112.869)" fill="#DDF4A6"/>
<rect width="531.469" height="1.29627" transform="matrix(-0.821552 -0.570134 -0.570134 0.821552 2039.07 118.194)" fill="#DDF4A6"/>
<rect width="531.469" height="1.29627" transform="matrix(-0.821552 -0.570134 -0.570134 0.821552 2035.37 123.519)" fill="#DDF4A6"/>
<rect width="531.469" height="1.29627" transform="matrix(-0.821552 -0.570134 -0.570134 0.821552 2031.68 128.843)" fill="#DDF4A6"/>
<rect width="531.469" height="1.29627" transform="matrix(-0.821552 -0.570134 -0.570134 0.821552 2027.98 134.168)" fill="#DDF4A6"/>
<rect width="531.469" height="1.29627" transform="matrix(-0.821552 -0.570134 -0.570134 0.821552 2024.29 139.493)" fill="#DDF4A6"/>
<rect width="531.469" height="1.29627" transform="matrix(-0.821552 -0.570134 -0.570134 0.821552 2020.59 144.818)" fill="#DDF4A6"/>
<rect width="531.469" height="1.29627" transform="matrix(-0.821552 -0.570134 -0.570134 0.821552 2016.9 150.142)" fill="#DDF4A6"/>
<rect width="531.469" height="1.29627" transform="matrix(-0.821552 -0.570134 -0.570134 0.821552 2013.2 155.467)" fill="#DDF4A6"/>
<rect width="531.469" height="1.29627" transform="matrix(-0.821552 -0.570134 -0.570134 0.821552 2009.51 160.792)" fill="#DDF4A6"/>
<rect width="531.469" height="1.29627" transform="matrix(-0.821552 -0.570134 -0.570134 0.821552 2005.81 166.117)" fill="#DDF4A6"/>
<rect width="531.469" height="1.29627" transform="matrix(-0.821552 -0.570134 -0.570134 0.821552 2002.12 171.441)" fill="#DDF4A6"/>
<rect width="531.469" height="1.29627" transform="matrix(-0.821552 -0.570134 -0.570134 0.821552 1998.42 176.766)" fill="#DDF4A6"/>
<rect width="531.469" height="1.29627" transform="matrix(-0.821552 -0.570134 -0.570134 0.821552 1994.73 182.091)" fill="#DDF4A6"/>
<rect width="531.469" height="1.29627" transform="matrix(-0.821552 -0.570134 -0.570134 0.821552 1991.03 187.416)" fill="#DDF4A6"/>
<rect width="531.469" height="1.29627" transform="matrix(-0.821552 -0.570134 -0.570134 0.821552 1987.34 192.74)" fill="#DDF4A6"/>
<rect width="531.469" height="1.29627" transform="matrix(-0.821552 -0.570134 -0.570134 0.821552 1983.64 198.065)" fill="#DDF4A6"/>
<rect width="531.469" height="1.29627" transform="matrix(-0.821552 -0.570134 -0.570134 0.821552 1979.95 203.39)" fill="#DDF4A6"/>
<rect width="531.469" height="1.29627" transform="matrix(-0.821552 -0.570134 -0.570134 0.821552 1976.25 208.715)" fill="#DDF4A6"/>
<rect width="531.469" height="1.29627" transform="matrix(-0.821552 -0.570134 -0.570134 0.821552 1972.56 214.039)" fill="#DDF4A6"/>
<rect width="531.469" height="1.29627" transform="matrix(-0.821552 -0.570134 -0.570134 0.821552 1966.29 219.281)" fill="#DDF4A6"/>
<rect width="531.469" height="1.29627" transform="matrix(-0.821552 -0.570134 -0.570134 0.821552 1965.17 224.689)" fill="#DDF4A6"/>
<rect width="531.469" height="1.29627" transform="matrix(-0.821552 -0.570134 -0.570134 0.821552 1961.47 230.014)" fill="#DDF4A6"/>
<rect width="531.469" height="1.29627" transform="matrix(-0.821552 -0.570134 -0.570134 0.821552 1957.77 235.338)" fill="#DDF4A6"/>
<rect width="531.469" height="1.29627" transform="matrix(-0.821552 -0.570134 -0.570134 0.821552 1954.08 240.663)" fill="#DDF4A6"/>
<rect width="531.469" height="1.29627" transform="matrix(-0.821552 -0.570134 -0.570134 0.821552 1950.38 245.988)" fill="#DDF4A6"/>
<rect width="531.469" height="1.29627" transform="matrix(-0.821552 -0.570134 -0.570134 0.821552 1946.69 251.313)" fill="#DDF4A6"/>
<rect width="531.469" height="1.29627" transform="matrix(-0.821552 -0.570134 -0.570134 0.821552 1942.99 256.637)" fill="#DDF4A6"/>
<rect width="531.469" height="1.29627" transform="matrix(-0.821552 -0.570134 -0.570134 0.821552 1939.3 261.962)" fill="#DDF4A6"/>
<rect width="531.469" height="1.29627" transform="matrix(-0.821552 -0.570134 -0.570134 0.821552 1935.6 267.287)" fill="#DDF4A6"/>
<rect width="531.469" height="1.29627" transform="matrix(-0.821552 -0.570134 -0.570134 0.821552 1931.91 272.612)" fill="#DDF4A6"/>
<rect width="531.469" height="1.29627" transform="matrix(-0.821552 -0.570134 -0.570134 0.821552 1928.21 277.936)" fill="#DDF4A6"/>
<rect width="531.469" height="1.29627" transform="matrix(-0.821552 -0.570134 -0.570134 0.821552 1924.52 283.261)" fill="#DDF4A6"/>
<rect width="531.469" height="1.29627" transform="matrix(-0.821552 -0.570134 -0.570134 0.821552 1920.82 288.586)" fill="#DDF4A6"/>
<rect width="531.469" height="1.29627" transform="matrix(-0.821552 -0.570134 -0.570134 0.821552 1917.13 293.911)" fill="#DDF4A6"/>
<rect width="531.469" height="1.29627" transform="matrix(-0.821552 -0.570134 -0.570134 0.821552 1913.43 299.235)" fill="#DDF4A6"/>
<rect width="531.469" height="1.29627" transform="matrix(-0.821552 -0.570134 -0.570134 0.821552 1909.74 304.56)" fill="#DDF4A6"/>
<rect width="531.469" height="1.29627" transform="matrix(-0.821552 -0.570134 -0.570134 0.821552 1906.04 309.885)" fill="#DDF4A6"/>
<rect width="531.469" height="1.29627" transform="matrix(-0.821552 -0.570134 -0.570134 0.821552 1902.35 315.21)" fill="#DDF4A6"/>
<rect width="531.469" height="1.29627" transform="matrix(-0.821552 -0.570134 -0.570134 0.821552 1898.65 320.534)" fill="#DDF4A6"/>
<rect width="531.469" height="1.29627" transform="matrix(-0.821552 -0.570134 -0.570134 0.821552 1894.96 325.859)" fill="#DDF4A6"/>
<rect width="531.469" height="1.29627" transform="matrix(-0.821552 -0.570134 -0.570134 0.821552 1891.26 331.184)" fill="#DDF4A6"/>
<rect width="531.469" height="1.29627" transform="matrix(-0.821552 -0.570134 -0.570134 0.821552 1887.56 336.509)" fill="#DDF4A6"/>
<rect width="531.469" height="1.29627" transform="matrix(-0.821552 -0.570134 -0.570134 0.821552 1883.87 341.833)" fill="#DDF4A6"/>
<rect width="531.469" height="1.29627" transform="matrix(-0.821552 -0.570134 -0.570134 0.821552 1880.17 347.158)" fill="#DDF4A6"/>
<rect width="531.469" height="1.29627" transform="matrix(-0.821552 -0.570134 -0.570134 0.821552 1876.48 352.483)" fill="#DDF4A6"/>
<rect width="531.469" height="1.29627" transform="matrix(-0.821552 -0.570134 -0.570134 0.821552 1872.78 357.808)" fill="#DDF4A6"/>
<rect width="531.469" height="1.29627" transform="matrix(-0.821552 -0.570134 -0.570134 0.821552 1869.09 363.132)" fill="#DDF4A6"/>
<rect width="531.469" height="1.29627" transform="matrix(-0.821552 -0.570134 -0.570134 0.821552 1865.39 368.457)" fill="#DDF4A6"/>
<rect width="531.469" height="1.29627" transform="matrix(-0.821552 -0.570134 -0.570134 0.821552 1861.7 373.782)" fill="#DDF4A6"/>
<rect width="531.469" height="1.29627" transform="matrix(-0.821552 -0.570134 -0.570134 0.821552 1858 379.107)" fill="#DDF4A6"/>
<rect width="531.469" height="1.29627" transform="matrix(-0.821552 -0.570134 -0.570134 0.821552 1854.31 384.431)" fill="#DDF4A6"/>
<rect width="531.469" height="1.29627" transform="matrix(-0.821552 -0.570134 -0.570134 0.821552 1850.61 389.756)" fill="#DDF4A6"/>
<rect width="531.469" height="1.29627" transform="matrix(-0.821552 -0.570134 -0.570134 0.821552 1846.92 395.081)" fill="#DDF4A6"/>
<rect width="531.469" height="1.29627" transform="matrix(-0.821552 -0.570134 -0.570134 0.821552 1843.22 400.406)" fill="#DDF4A6"/>
<rect width="531.469" height="1.29627" transform="matrix(-0.821552 -0.570134 -0.570134 0.821552 1839.53 405.73)" fill="#DDF4A6"/>
<rect width="531.469" height="1.29627" transform="matrix(-0.821552 -0.570134 -0.570134 0.821552 1835.83 411.055)" fill="#DDF4A6"/>
<rect width="531.469" height="1.29627" transform="matrix(-0.821552 -0.570134 -0.570134 0.821552 1832.14 416.38)" fill="#DDF4A6"/>
<rect width="531.469" height="1.29627" transform="matrix(-0.821552 -0.570134 -0.570134 0.821552 1828.44 421.705)" fill="#DDF4A6"/>
<rect width="531.469" height="1.29627" transform="matrix(-0.821552 -0.570134 -0.570134 0.821552 1824.75 427.029)" fill="#DDF4A6"/>
<rect width="531.469" height="1.29627" transform="matrix(-0.821552 -0.570134 -0.570134 0.821552 1821.05 432.354)" fill="#DDF4A6"/>
<rect width="531.469" height="1.29627" transform="matrix(-0.821552 -0.570134 -0.570134 0.821552 1817.36 437.679)" fill="#DDF4A6"/>
<rect width="531.469" height="1.29627" transform="matrix(-0.821552 -0.570134 -0.570134 0.821552 1813.66 443.004)" fill="#DDF4A6"/>
<rect width="531.469" height="1.29627" transform="matrix(-0.821552 -0.570134 -0.570134 0.821552 1809.97 448.328)" fill="#DDF4A6"/>
<rect width="531.469" height="1.29627" transform="matrix(-0.821552 -0.570134 -0.570134 0.821552 1806.27 453.653)" fill="#DDF4A6"/>
<rect width="531.469" height="1.29627" transform="matrix(-0.821552 -0.570134 -0.570134 0.821552 1802.57 458.978)" fill="#DDF4A6"/>
</g>
<mask id="mask1_2069_3" style="mask-type:alpha" maskUnits="userSpaceOnUse" x="0" y="297" width="273" height="229">
<rect width="272.517" height="228.821" transform="matrix(1 0 0 -1 0.482422 526)" fill="#D0A7A9"/>
</mask>
<g mask="url(#mask1_2069_3)">
<rect width="385.283" height="0.939715" transform="matrix(0.821552 0.570134 0.570134 -0.821552 -118.58 451.897)" fill="#DDF4A6"/>
<rect width="385.283" height="0.939715" transform="matrix(0.821552 0.570134 0.570134 -0.821552 -115.901 448.037)" fill="#DDF4A6"/>
<rect width="385.283" height="0.939715" transform="matrix(0.821552 0.570134 0.570134 -0.821552 -113.222 444.177)" fill="#DDF4A6"/>
<rect width="385.283" height="0.939715" transform="matrix(0.821552 0.570134 0.570134 -0.821552 -110.544 440.317)" fill="#DDF4A6"/>
<rect width="385.283" height="0.939715" transform="matrix(0.821552 0.570134 0.570134 -0.821552 -107.865 436.457)" fill="#DDF4A6"/>
<rect width="385.283" height="0.939715" transform="matrix(0.821552 0.570134 0.570134 -0.821552 -105.186 432.596)" fill="#DDF4A6"/>
<rect width="385.283" height="0.939715" transform="matrix(0.821552 0.570134 0.570134 -0.821552 -102.507 428.736)" fill="#DDF4A6"/>
<rect width="385.283" height="0.939715" transform="matrix(0.821552 0.570134 0.570134 -0.821552 -99.8285 424.876)" fill="#DDF4A6"/>
<rect width="385.283" height="0.939715" transform="matrix(0.821552 0.570134 0.570134 -0.821552 -97.1497 421.016)" fill="#DDF4A6"/>
<rect width="385.283" height="0.939715" transform="matrix(0.821552 0.570134 0.570134 -0.821552 -94.4707 417.156)" fill="#DDF4A6"/>
<rect width="385.283" height="0.939715" transform="matrix(0.821552 0.570134 0.570134 -0.821552 -91.7919 413.296)" fill="#DDF4A6"/>
<rect width="385.283" height="0.939715" transform="matrix(0.821552 0.570134 0.570134 -0.821552 -89.1132 409.436)" fill="#DDF4A6"/>
<rect width="385.283" height="0.939715" transform="matrix(0.821552 0.570134 0.570134 -0.821552 -86.4342 405.575)" fill="#DDF4A6"/>
<rect width="385.283" height="0.939715" transform="matrix(0.821552 0.570134 0.570134 -0.821552 -83.7555 401.715)" fill="#DDF4A6"/>
<rect width="385.283" height="0.939715" transform="matrix(0.821552 0.570134 0.570134 -0.821552 -81.0767 397.855)" fill="#DDF4A6"/>
<rect width="385.283" height="0.939715" transform="matrix(0.821552 0.570134 0.570134 -0.821552 -78.3979 393.995)" fill="#DDF4A6"/>
<rect width="385.283" height="0.939715" transform="matrix(0.821552 0.570134 0.570134 -0.821552 -75.7192 390.135)" fill="#DDF4A6"/>
<rect width="385.283" height="0.939715" transform="matrix(0.821552 0.570134 0.570134 -0.821552 -73.0402 386.275)" fill="#DDF4A6"/>
<rect width="385.283" height="0.939715" transform="matrix(0.821552 0.570134 0.570134 -0.821552 -70.3613 382.415)" fill="#DDF4A6"/>
<rect width="385.283" height="0.939715" transform="matrix(0.821552 0.570134 0.570134 -0.821552 -67.6826 378.555)" fill="#DDF4A6"/>
<rect width="385.283" height="0.939715" transform="matrix(0.821552 0.570134 0.570134 -0.821552 -65.0037 374.694)" fill="#DDF4A6"/>
<rect width="385.283" height="0.939715" transform="matrix(0.821552 0.570134 0.570134 -0.821552 -62.325 370.834)" fill="#DDF4A6"/>
<rect width="385.283" height="0.939715" transform="matrix(0.821552 0.570134 0.570134 -0.821552 -59.6461 366.974)" fill="#DDF4A6"/>
<rect width="385.283" height="0.939715" transform="matrix(0.821552 0.570134 0.570134 -0.821552 -56.9674 363.114)" fill="#DDF4A6"/>
<rect width="385.283" height="0.939715" transform="matrix(0.821552 0.570134 0.570134 -0.821552 -54.2883 359.254)" fill="#DDF4A6"/>
<rect width="385.283" height="0.939715" transform="matrix(0.821552 0.570134 0.570134 -0.821552 -51.6096 355.394)" fill="#DDF4A6"/>
<rect width="385.283" height="0.939715" transform="matrix(0.821552 0.570134 0.570134 -0.821552 -48.9308 351.534)" fill="#DDF4A6"/>
<rect width="385.283" height="0.939715" transform="matrix(0.821552 0.570134 0.570134 -0.821552 -46.2521 347.674)" fill="#DDF4A6"/>
<rect width="385.283" height="0.939715" transform="matrix(0.821552 0.570134 0.570134 -0.821552 -43.5731 343.813)" fill="#DDF4A6"/>
<rect width="385.283" height="0.939715" transform="matrix(0.821552 0.570134 0.570134 -0.821552 -40.8944 339.953)" fill="#DDF4A6"/>
<rect width="385.283" height="0.939715" transform="matrix(0.821552 0.570134 0.570134 -0.821552 -38.2156 336.093)" fill="#DDF4A6"/>
<rect width="385.283" height="0.939715" transform="matrix(0.821552 0.570134 0.570134 -0.821552 -35.5365 332.233)" fill="#DDF4A6"/>
<rect width="385.283" height="0.939715" transform="matrix(0.821552 0.570134 0.570134 -0.821552 -32.8578 328.373)" fill="#DDF4A6"/>
<rect width="385.283" height="0.939715" transform="matrix(0.821552 0.570134 0.570134 -0.821552 -30.1791 324.513)" fill="#DDF4A6"/>
<rect width="385.283" height="0.939715" transform="matrix(0.821552 0.570134 0.570134 -0.821552 -27.5004 320.653)" fill="#DDF4A6"/>
<rect width="385.283" height="0.939715" transform="matrix(0.821552 0.570134 0.570134 -0.821552 -24.8213 316.793)" fill="#DDF4A6"/>
<rect width="385.283" height="0.939715" transform="matrix(0.821552 0.570134 0.570134 -0.821552 -22.1426 312.932)" fill="#DDF4A6"/>
<rect width="385.283" height="0.939715" transform="matrix(0.821552 0.570134 0.570134 -0.821552 -19.4639 309.073)" fill="#DDF4A6"/>
<rect width="385.283" height="0.939715" transform="matrix(0.821552 0.570134 0.570134 -0.821552 -16.7852 305.212)" fill="#DDF4A6"/>
<rect width="385.283" height="0.939715" transform="matrix(0.821552 0.570134 0.570134 -0.821552 -14.1063 301.352)" fill="#DDF4A6"/>
<rect width="385.283" height="0.939715" transform="matrix(0.821552 0.570134 0.570134 -0.821552 -11.4272 297.492)" fill="#DDF4A6"/>
<rect width="385.283" height="0.939715" transform="matrix(0.821552 0.570134 0.570134 -0.821552 -8.74854 293.632)" fill="#DDF4A6"/>
<rect width="385.283" height="0.939715" transform="matrix(0.821552 0.570134 0.570134 -0.821552 -6.06982 289.772)" fill="#DDF4A6"/>
<rect width="385.283" height="0.939715" transform="matrix(0.821552 0.570134 0.570134 -0.821552 -3.39087 285.912)" fill="#DDF4A6"/>
<rect width="385.283" height="0.939715" transform="matrix(0.821552 0.570134 0.570134 -0.821552 -0.712158 282.052)" fill="#DDF4A6"/>
<rect width="385.283" height="0.939715" transform="matrix(0.821552 0.570134 0.570134 -0.821552 1.9668 278.191)" fill="#DDF4A6"/>
<rect width="385.283" height="0.939715" transform="matrix(0.821552 0.570134 0.570134 -0.821552 4.64551 274.331)" fill="#DDF4A6"/>
<rect width="385.283" height="0.939715" transform="matrix(0.821552 0.570134 0.570134 -0.821552 7.32446 270.471)" fill="#DDF4A6"/>
<rect width="385.283" height="0.939715" transform="matrix(0.821552 0.570134 0.570134 -0.821552 10.0032 266.611)" fill="#DDF4A6"/>
<rect width="385.283" height="0.939715" transform="matrix(0.821552 0.570134 0.570134 -0.821552 12.6819 262.751)" fill="#DDF4A6"/>
<rect width="385.283" height="0.939715" transform="matrix(0.821552 0.570134 0.570134 -0.821552 15.3608 258.891)" fill="#DDF4A6"/>
<rect width="385.283" height="0.939715" transform="matrix(0.821552 0.570134 0.570134 -0.821552 18.0396 255.031)" fill="#DDF4A6"/>
<rect width="385.283" height="0.939715" transform="matrix(0.821552 0.570134 0.570134 -0.821552 20.7185 251.171)" fill="#DDF4A6"/>
<rect width="385.283" height="0.939715" transform="matrix(0.821552 0.570134 0.570134 -0.821552 23.3975 247.311)" fill="#DDF4A6"/>
<rect width="385.283" height="0.939715" transform="matrix(0.821552 0.570134 0.570134 -0.821552 26.0762 243.45)" fill="#DDF4A6"/>
<rect width="385.283" height="0.939715" transform="matrix(0.821552 0.570134 0.570134 -0.821552 28.7551 239.59)" fill="#DDF4A6"/>
<rect width="385.283" height="0.939715" transform="matrix(0.821552 0.570134 0.570134 -0.821552 31.4336 235.73)" fill="#DDF4A6"/>
<rect width="385.283" height="0.939715" transform="matrix(0.821552 0.570134 0.570134 -0.821552 34.1125 231.87)" fill="#DDF4A6"/>
<rect width="385.283" height="0.939715" transform="matrix(0.821552 0.570134 0.570134 -0.821552 36.7915 228.01)" fill="#DDF4A6"/>
<rect width="385.283" height="0.939715" transform="matrix(0.821552 0.570134 0.570134 -0.821552 39.4702 224.15)" fill="#DDF4A6"/>
<rect width="385.283" height="0.939715" transform="matrix(0.821552 0.570134 0.570134 -0.821552 42.1492 220.29)" fill="#DDF4A6"/>
<rect width="385.283" height="0.939715" transform="matrix(0.821552 0.570134 0.570134 -0.821552 44.8279 216.43)" fill="#DDF4A6"/>
<rect width="385.283" height="0.939715" transform="matrix(0.821552 0.570134 0.570134 -0.821552 47.5063 212.569)" fill="#DDF4A6"/>
<rect width="385.283" height="0.939715" transform="matrix(0.821552 0.570134 0.570134 -0.821552 50.1855 208.709)" fill="#DDF4A6"/>
<rect width="385.283" height="0.939715" transform="matrix(0.821552 0.570134 0.570134 -0.821552 52.8643 204.849)" fill="#DDF4A6"/>
<rect width="385.283" height="0.939715" transform="matrix(0.821552 0.570134 0.570134 -0.821552 55.5432 200.989)" fill="#DDF4A6"/>
<rect width="385.283" height="0.939715" transform="matrix(0.821552 0.570134 0.570134 -0.821552 58.2222 197.129)" fill="#DDF4A6"/>
<rect width="385.283" height="0.939715" transform="matrix(0.821552 0.570134 0.570134 -0.821552 60.9009 193.269)" fill="#DDF4A6"/>
</g>
<mask id="mask2_2069_3" style="mask-type:alpha" maskUnits="userSpaceOnUse" x="1" y="0" width="186" height="116">
<rect x="1" width="186" height="115.539" fill="#FBCCCF"/>
</mask>
<g mask="url(#mask2_2069_3)">
<rect width="242.848" height="0.534487" transform="matrix(0.889607 -0.456727 0.684155 0.729337 -80.2631 37.4171)" fill="#DDF4A6"/>
<rect width="242.848" height="0.534487" transform="matrix(0.889607 -0.456727 0.684155 0.729337 -78.4347 39.3663)" fill="#DDF4A6"/>
<rect width="242.848" height="0.534487" transform="matrix(0.889607 -0.456727 0.684155 0.729337 -76.6063 41.3154)" fill="#DDF4A6"/>
<rect width="242.848" height="0.534487" transform="matrix(0.889607 -0.456727 0.684155 0.729337 -74.7781 43.2645)" fill="#DDF4A6"/>
<rect width="242.848" height="0.534487" transform="matrix(0.889607 -0.456727 0.684155 0.729337 -72.9497 45.2136)" fill="#DDF4A6"/>
<rect width="242.848" height="0.534487" transform="matrix(0.889607 -0.456727 0.684155 0.729337 -71.1212 47.1627)" fill="#DDF4A6"/>
<rect width="242.848" height="0.534487" transform="matrix(0.889607 -0.456727 0.684155 0.729337 -69.2931 49.1118)" fill="#DDF4A6"/>
<rect width="242.848" height="0.534487" transform="matrix(0.889607 -0.456727 0.684155 0.729337 -67.4647 51.0609)" fill="#DDF4A6"/>
<rect width="242.848" height="0.534487" transform="matrix(0.889607 -0.456727 0.684155 0.729337 -65.6361 53.0101)" fill="#DDF4A6"/>
<rect width="242.848" height="0.534487" transform="matrix(0.889607 -0.456727 0.684155 0.729337 -63.8079 54.9592)" fill="#DDF4A6"/>
<rect width="242.848" height="0.534487" transform="matrix(0.889607 -0.456727 0.684155 0.729337 -61.9795 56.9083)" fill="#DDF4A6"/>
<rect width="242.848" height="0.534487" transform="matrix(0.889607 -0.456727 0.684155 0.729337 -60.1512 58.8574)" fill="#DDF4A6"/>
<rect width="242.848" height="0.534487" transform="matrix(0.889607 -0.456727 0.684155 0.729337 -58.3228 60.8065)" fill="#DDF4A6"/>
<rect width="242.848" height="0.534487" transform="matrix(0.889607 -0.456727 0.684155 0.729337 -56.4944 62.7556)" fill="#DDF4A6"/>
<rect width="242.848" height="0.534487" transform="matrix(0.889607 -0.456727 0.684155 0.729337 -54.6661 64.7047)" fill="#DDF4A6"/>
<rect width="242.848" height="0.534487" transform="matrix(0.889607 -0.456727 0.684155 0.729337 -52.8378 66.6538)" fill="#DDF4A6"/>
<rect width="242.848" height="0.534487" transform="matrix(0.889607 -0.456727 0.684155 0.729337 -51.0093 68.6029)" fill="#DDF4A6"/>
<rect width="242.848" height="0.534487" transform="matrix(0.889607 -0.456727 0.684155 0.729337 -49.181 70.552)" fill="#DDF4A6"/>
<rect width="242.848" height="0.534487" transform="matrix(0.889607 -0.456727 0.684155 0.729337 -47.3525 72.5011)" fill="#DDF4A6"/>
<rect width="242.848" height="0.534487" transform="matrix(0.889607 -0.456727 0.684155 0.729337 -45.5242 74.4502)" fill="#DDF4A6"/>
<rect width="242.848" height="0.534487" transform="matrix(0.889607 -0.456727 0.684155 0.729337 -43.6959 76.3993)" fill="#DDF4A6"/>
<rect width="242.848" height="0.534487" transform="matrix(0.889607 -0.456727 0.684155 0.729337 -41.8676 78.3484)" fill="#DDF4A6"/>
<rect width="242.848" height="0.534487" transform="matrix(0.889607 -0.456727 0.684155 0.729337 -40.0392 80.2975)" fill="#DDF4A6"/>
<rect width="242.848" height="0.534487" transform="matrix(0.889607 -0.456727 0.684155 0.729337 -38.2108 82.2466)" fill="#DDF4A6"/>
<rect width="242.848" height="0.534487" transform="matrix(0.889607 -0.456727 0.684155 0.729337 -36.3824 84.1957)" fill="#DDF4A6"/>
<rect width="242.848" height="0.534487" transform="matrix(0.889607 -0.456727 0.684155 0.729337 -34.5542 86.1449)" fill="#DDF4A6"/>
<rect width="242.848" height="0.534487" transform="matrix(0.889607 -0.456727 0.684155 0.729337 -32.7258 88.094)" fill="#DDF4A6"/>
<rect width="242.848" height="0.534487" transform="matrix(0.889607 -0.456727 0.684155 0.729337 -30.8972 90.0431)" fill="#DDF4A6"/>
<rect width="242.848" height="0.534487" transform="matrix(0.889607 -0.456727 0.684155 0.729337 -29.069 91.9921)" fill="#DDF4A6"/>
<rect width="242.848" height="0.534487" transform="matrix(0.889607 -0.456727 0.684155 0.729337 -27.2406 93.9413)" fill="#DDF4A6"/>
<rect width="242.848" height="0.534487" transform="matrix(0.889607 -0.456727 0.684155 0.729337 -25.4124 95.8904)" fill="#DDF4A6"/>
<rect width="242.848" height="0.534487" transform="matrix(0.889607 -0.456727 0.684155 0.729337 -23.5839 97.8395)" fill="#DDF4A6"/>
<rect width="242.848" height="0.534487" transform="matrix(0.889607 -0.456727 0.684155 0.729337 -21.7556 99.7886)" fill="#DDF4A6"/>
<rect width="242.848" height="0.534487" transform="matrix(0.889607 -0.456727 0.684155 0.729337 -19.9272 101.738)" fill="#DDF4A6"/>
<rect width="242.848" height="0.534487" transform="matrix(0.889607 -0.456727 0.684155 0.729337 -18.0988 103.687)" fill="#DDF4A6"/>
<rect width="242.848" height="0.534487" transform="matrix(0.889607 -0.456727 0.684155 0.729337 -16.2704 105.636)" fill="#DDF4A6"/>
<rect width="242.848" height="0.534487" transform="matrix(0.889607 -0.456727 0.684155 0.729337 -14.4421 107.585)" fill="#DDF4A6"/>
<rect width="242.848" height="0.534487" transform="matrix(0.889607 -0.456727 0.684155 0.729337 -12.6138 109.534)" fill="#DDF4A6"/>
<rect width="242.848" height="0.534487" transform="matrix(0.889607 -0.456727 0.684155 0.729337 -10.7852 111.483)" fill="#DDF4A6"/>
<rect width="242.848" height="0.534487" transform="matrix(0.889607 -0.456727 0.684155 0.729337 -8.95691 113.432)" fill="#DDF4A6"/>
<rect width="242.848" height="0.534487" transform="matrix(0.889607 -0.456727 0.684155 0.729337 -7.12866 115.381)" fill="#DDF4A6"/>
<rect width="242.848" height="0.534487" transform="matrix(0.889607 -0.456727 0.684155 0.729337 -5.30042 117.331)" fill="#DDF4A6"/>
<rect width="242.848" height="0.534487" transform="matrix(0.889607 -0.456727 0.684155 0.729337 -3.47217 119.28)" fill="#DDF4A6"/>
<rect width="242.848" height="0.534487" transform="matrix(0.889607 -0.456727 0.684155 0.729337 -1.64355 121.229)" fill="#DDF4A6"/>
<rect width="242.848" height="0.534487" transform="matrix(0.889607 -0.456727 0.684155 0.729337 0.184814 123.178)" fill="#DDF4A6"/>
<rect width="242.848" height="0.534487" transform="matrix(0.889607 -0.456727 0.684155 0.729337 2.01318 125.127)" fill="#DDF4A6"/>
<rect width="242.848" height="0.534487" transform="matrix(0.889607 -0.456727 0.684155 0.729337 3.84155 127.076)" fill="#DDF4A6"/>
<rect width="242.848" height="0.534487" transform="matrix(0.889607 -0.456727 0.684155 0.729337 5.66968 129.025)" fill="#DDF4A6"/>
<rect width="242.848" height="0.534487" transform="matrix(0.889607 -0.456727 0.684155 0.729337 7.49805 130.974)" fill="#DDF4A6"/>
<rect width="242.848" height="0.534487" transform="matrix(0.889607 -0.456727 0.684155 0.729337 9.32642 132.923)" fill="#DDF4A6"/>
<rect width="242.848" height="0.534487" transform="matrix(0.889607 -0.456727 0.684155 0.729337 11.155 134.872)" fill="#DDF4A6"/>
<rect width="242.848" height="0.534487" transform="matrix(0.889607 -0.456727 0.684155 0.729337 12.9834 136.822)" fill="#DDF4A6"/>
<rect width="242.848" height="0.534487" transform="matrix(0.889607 -0.456727 0.684155 0.729337 14.8118 138.771)" fill="#DDF4A6"/>
<rect width="242.848" height="0.534487" transform="matrix(0.889607 -0.456727 0.684155 0.729337 16.6399 140.72)" fill="#DDF4A6"/>
<rect width="242.848" height="0.534487" transform="matrix(0.889607 -0.456727 0.684155 0.729337 18.4685 142.669)" fill="#DDF4A6"/>
<rect width="242.848" height="0.534487" transform="matrix(0.889607 -0.456727 0.684155 0.729337 20.2969 144.618)" fill="#DDF4A6"/>
<rect width="242.848" height="0.534487" transform="matrix(0.889607 -0.456727 0.684155 0.729337 22.125 146.567)" fill="#DDF4A6"/>
<rect width="242.848" height="0.534487" transform="matrix(0.889607 -0.456727 0.684155 0.729337 23.9534 148.516)" fill="#DDF4A6"/>
<rect width="242.848" height="0.534487" transform="matrix(0.889607 -0.456727 0.684155 0.729337 25.7817 150.465)" fill="#DDF4A6"/>
<rect width="242.848" height="0.534487" transform="matrix(0.889607 -0.456727 0.684155 0.729337 27.6101 152.415)" fill="#DDF4A6"/>
<rect width="242.848" height="0.534487" transform="matrix(0.889607 -0.456727 0.684155 0.729337 29.4385 154.364)" fill="#DDF4A6"/>
<rect width="242.848" height="0.534487" transform="matrix(0.889607 -0.456727 0.684155 0.729337 31.2668 156.313)" fill="#DDF4A6"/>
<rect width="242.848" height="0.534487" transform="matrix(0.889607 -0.456727 0.684155 0.729337 33.0955 158.262)" fill="#DDF4A6"/>
<rect width="242.848" height="0.534487" transform="matrix(0.889607 -0.456727 0.684155 0.729337 34.9236 160.211)" fill="#DDF4A6"/>
<rect width="242.848" height="0.534487" transform="matrix(0.889607 -0.456727 0.684155 0.729337 36.752 162.16)" fill="#DDF4A6"/>
<rect width="242.848" height="0.534487" transform="matrix(0.889607 -0.456727 0.684155 0.729337 38.5803 164.109)" fill="#DDF4A6"/>
<rect width="242.848" height="0.534487" transform="matrix(0.889607 -0.456727 0.684155 0.729337 40.4087 166.058)" fill="#DDF4A6"/>
<rect width="242.848" height="0.534487" transform="matrix(0.889607 -0.456727 0.684155 0.729337 42.2371 168.007)" fill="#DDF4A6"/>
</g>
<circle cx="99.2824" cy="66.3072" r="18.9355" fill="white"/>
<path d="M54.7839 33.17H101.649L89.1045 66.7805H54.7839V33.17Z" fill="#123E23"/>
<path d="M61.1587 53.2104V45.4966L58.8204 43.3914H65.4608V47.9514H70.0375V43.3914H76.5197L74.3396 45.505V53.2104L76.6778 55.324H70.0375V49.6905H65.4608V55.324H58.8204L61.1587 53.2104Z" fill="white"/>
<path d="M76.3238 53.2104V45.738L73.7608 43.3914H80.1183L86.8252 49.3827V45.505L84.4953 43.3914H91.1772L89.0886 45.505V55.324H86.8252L78.5872 47.8016V53.2104L81.0919 55.324H74.0687L76.3238 53.2104Z" fill="white"/>
</svg>
